<?xml version="1.0" encoding="UTF-8" standalone="no"?><!DOCTYPE svg PUBLIC "-//W3C//DTD SVG 1.1//EN" "http://www.w3.org/Graphics/SVG/1.1/DTD/svg11.dtd"><svg width="100%" height="100%" viewBox="0 0 430 463" version="1.1" xmlns="http://www.w3.org/2000/svg" xmlns:xlink="http://www.w3.org/1999/xlink" xml:space="preserve" xmlns:serif="http://www.serif.com/" style="fill-rule:evenodd;clip-rule:evenodd;stroke-linejoin:round;stroke-miterlimit:2;"><g id="LogoTLarge"><path d="M429.877,97.378l0,38.657l-359.802,0l0,-27.454l-7.513,0l-0,27.454l-61.776,0l0,-40.876c11.129,-4.954 18.783,-15.237 18.783,-27.106c0,-11.869 -7.654,-22.152 -18.783,-27.106l0,-40.876l61.776,-0l-0,27.454l7.513,-0l0,-27.454l359.802,-0l0,38.657c-14.629,3.33 -25.461,15.205 -25.461,29.325c-0,14.12 10.832,25.995 25.461,29.325Zm-359.802,-46.321l-7.513,0l-0,33.992l7.513,-0l0,-33.992Z" style="fill:#f05537;"/><path d="M181.519,462.734l-44.574,-0l-0,-374.736l31.656,-0l-0,-7.826l-31.656,0l-0,-64.339l47.132,-0c5.713,11.591 17.569,19.562 31.255,19.562c13.686,0 25.542,-7.971 31.255,-19.562l47.132,-0l-0,64.339l-31.657,0l0,7.826l31.657,-0l-0,374.736l-44.574,-0c-3.84,-15.236 -17.532,-26.519 -33.813,-26.519c-16.282,0 -29.973,11.283 -33.813,26.519Zm53.409,-374.736l0,-7.826l-39.193,0l-0,7.826l39.193,-0Z" style="fill:#f05537;"/></g></svg>