<?xml version="1.0" encoding="UTF-8" standalone="no"?><!DOCTYPE svg PUBLIC "-//W3C//DTD SVG 1.1//EN" "http://www.w3.org/Graphics/SVG/1.1/DTD/svg11.dtd"><svg width="100%" height="100%" viewBox="0 0 1016 224" version="1.1" xmlns="http://www.w3.org/2000/svg" xmlns:xlink="http://www.w3.org/1999/xlink" xml:space="preserve" xmlns:serif="http://www.serif.com/" style="fill-rule:evenodd;clip-rule:evenodd;stroke-linejoin:round;stroke-miterlimit:2;"><g id="LogoFullTextLarge"><path d="M268.936,179c3.395,-3.591 5.518,-8.133 6.366,-13.626l39.216,0c-1.698,13.943 -6.706,25.773 -15.024,35.49c-6.961,7.817 -15.576,13.573 -25.847,17.27c-10.271,3.697 -21.602,5.546 -33.995,5.546c-18.165,-0 -33.699,-4.067 -46.601,-12.2c-12.902,-8.133 -22.069,-19.805 -27.502,-35.015c-3.734,-10.14 -5.602,-22.287 -5.602,-36.441c0,-13.731 1.953,-26.089 5.857,-37.075c5.433,-15.21 14.345,-26.776 26.738,-34.698c12.393,-7.922 27.332,-11.882 44.818,-11.882c17.655,-0 32.595,4.119 44.818,12.358c12.223,8.239 21.051,20.069 26.483,35.49c2.377,6.971 4.074,14.259 5.093,21.864c1.019,7.606 1.528,16.372 1.528,26.301l-116.374,0c0.51,5.493 1.528,10.352 3.056,14.577c2.546,7.393 7.13,12.939 13.751,16.636c6.621,3.697 14.685,5.545 24.191,5.545c6.112,0 11.714,-0.845 16.807,-2.535c5.093,-1.69 9.167,-4.225 12.223,-7.605Zm-31.321,-88.726c-8.998,0 -16.51,1.902 -22.537,5.704c-6.026,3.803 -10.398,9.506 -13.114,17.112c-1.188,2.746 -2.037,6.231 -2.546,10.456l76.903,0c-0.509,-3.38 -1.443,-7.076 -2.801,-11.09c-2.716,-7.394 -7.173,-12.939 -13.369,-16.636c-6.197,-3.697 -13.709,-5.546 -22.536,-5.546Z" style="fill:#f05537;fill-rule:nonzero;"/><path d="M391.676,223.996c-15.279,0 -28.054,-2.746 -38.324,-8.238c-10.271,-5.493 -17.444,-13.837 -21.518,-25.034c-2.716,-7.393 -4.074,-15.527 -4.074,-24.399l38.451,-0c0,4.225 0.679,8.239 2.038,12.041c3.395,9.295 11.544,13.943 24.446,13.943c5.941,-0 10.865,-0.792 14.769,-2.377c3.905,-1.584 6.451,-4.066 7.64,-7.446c0.679,-1.69 1.018,-3.803 1.018,-6.338c0,-2.324 -0.339,-4.436 -1.018,-6.337c-1.019,-2.747 -3.014,-4.965 -5.985,-6.655c-2.97,-1.69 -6.79,-3.221 -11.459,-4.595c-4.668,-1.373 -11.841,-3.221 -21.517,-5.545c-10.356,-2.535 -19.056,-6.073 -26.102,-10.615c-7.045,-4.542 -12.095,-11.038 -15.151,-19.488c-1.868,-5.282 -2.801,-11.091 -2.801,-17.429c-0,-6.337 1.018,-12.358 3.055,-18.062c3.735,-10.351 10.738,-18.114 21.009,-23.29c10.271,-5.176 22.281,-7.763 36.032,-7.763c13.921,-0 25.889,2.64 35.906,7.921c10.016,5.282 16.976,13.204 20.881,23.766c2.207,6.549 3.31,13.415 3.31,20.597l-37.433,0c-0,-4.014 -0.509,-7.394 -1.528,-10.14c-1.528,-4.225 -4.202,-7.394 -8.021,-9.506c-3.82,-2.113 -8.361,-3.169 -13.624,-3.169c-10.695,0 -17.146,3.063 -19.353,9.19c-0.679,1.478 -1.019,3.38 -1.019,5.703c0,2.113 0.34,3.908 1.019,5.387c1.528,3.803 4.753,6.707 9.676,8.714c4.924,2.007 11.799,4.067 20.627,6.179l6.621,1.585c12.053,3.169 21.73,7.182 29.029,12.041c7.3,4.859 12.478,11.513 15.534,19.963c1.867,4.648 2.801,10.457 2.801,17.429c0,7.393 -1.019,13.942 -3.056,19.646c-4.074,10.985 -11.629,19.118 -22.663,24.4c-11.035,5.281 -24.107,7.921 -39.216,7.921Z" style="fill:#f05537;fill-rule:nonzero;"/><path d="M533.26,223.996c-15.279,0 -28.054,-2.746 -38.325,-8.238c-10.27,-5.493 -17.443,-13.837 -21.517,-25.034c-2.716,-7.393 -4.075,-15.527 -4.075,-24.399l38.452,-0c0,4.225 0.679,8.239 2.037,12.041c3.396,9.295 11.544,13.943 24.446,13.943c5.942,-0 10.865,-0.792 14.77,-2.377c3.905,-1.584 6.451,-4.066 7.639,-7.446c0.679,-1.69 1.019,-3.803 1.019,-6.338c-0,-2.324 -0.34,-4.436 -1.019,-6.337c-1.018,-2.747 -3.013,-4.965 -5.984,-6.655c-2.971,-1.69 -6.79,-3.221 -11.459,-4.595c-4.668,-1.373 -11.841,-3.221 -21.518,-5.545c-10.355,-2.535 -19.056,-6.073 -26.101,-10.615c-7.045,-4.542 -12.096,-11.038 -15.151,-19.488c-1.868,-5.282 -2.802,-11.091 -2.802,-17.429c0,-6.337 1.019,-12.358 3.056,-18.062c3.735,-10.351 10.738,-18.114 21.009,-23.29c10.27,-5.176 22.281,-7.763 36.032,-7.763c13.921,-0 25.889,2.64 35.905,7.921c10.017,5.282 16.977,13.204 20.881,23.766c2.207,6.549 3.311,13.415 3.311,20.597l-37.433,0c-0,-4.014 -0.51,-7.394 -1.528,-10.14c-1.528,-4.225 -4.202,-7.394 -8.022,-9.506c-3.819,-2.113 -8.36,-3.169 -13.623,-3.169c-10.695,0 -17.146,3.063 -19.353,9.19c-0.679,1.478 -1.019,3.38 -1.019,5.703c0,2.113 0.34,3.908 1.019,5.387c1.528,3.803 4.753,6.707 9.676,8.714c4.923,2.007 11.799,4.067 20.627,6.179l6.62,1.585c12.054,3.169 21.73,7.182 29.03,12.041c7.3,4.859 12.478,11.513 15.534,19.963c1.867,4.648 2.801,10.457 2.801,17.429c-0,7.393 -1.019,13.942 -3.056,19.646c-4.074,10.985 -11.629,19.118 -22.663,24.4c-11.035,5.281 -24.107,7.921 -39.216,7.921Z" style="fill:#f05537;fill-rule:nonzero;"/><path d="M719.662,179c3.395,-3.591 5.517,-8.133 6.366,-13.626l39.215,0c-1.697,13.943 -6.705,25.773 -15.024,35.49c-6.96,7.817 -15.576,13.573 -25.847,17.27c-10.27,3.697 -21.602,5.546 -33.995,5.546c-18.165,-0 -33.698,-4.067 -46.6,-12.2c-12.902,-8.133 -22.07,-19.805 -27.502,-35.015c-3.735,-10.14 -5.602,-22.287 -5.602,-36.441c-0,-13.731 1.952,-26.089 5.856,-37.075c5.433,-15.21 14.346,-26.776 26.738,-34.698c12.393,-7.922 27.333,-11.882 44.818,-11.882c17.656,-0 32.595,4.119 44.818,12.358c12.223,8.239 21.051,20.069 26.483,35.49c2.377,6.971 4.075,14.259 5.093,21.864c1.019,7.606 1.528,16.372 1.528,26.301l-116.373,0c0.509,5.493 1.527,10.352 3.055,14.577c2.547,7.393 7.13,12.939 13.751,16.636c6.621,3.697 14.685,5.545 24.192,5.545c6.111,0 11.714,-0.845 16.806,-2.535c5.093,-1.69 9.168,-4.225 12.224,-7.605Zm-31.322,-88.726c-8.998,0 -16.51,1.902 -22.536,5.704c-6.027,3.803 -10.398,9.506 -13.115,17.112c-1.188,2.746 -2.037,6.231 -2.546,10.456l76.903,0c-0.509,-3.38 -1.443,-7.076 -2.801,-11.09c-2.716,-7.394 -7.172,-12.939 -13.369,-16.636c-6.196,-3.697 -13.708,-5.546 -22.536,-5.546Z" style="fill:#f05537;fill-rule:nonzero;"/><path d="M785.87,61.439l38.451,-0l0,12.675c3.226,-5.915 6.664,-10.246 10.314,-12.992c3.65,-2.747 7.851,-4.12 12.605,-4.12c7.13,0 12.817,2.588 17.061,7.764c4.244,5.175 6.366,11.988 6.366,20.438c0,5.493 -0.933,10.352 -2.801,14.577c-1.867,4.225 -4.499,7.499 -7.894,9.823c-3.395,2.324 -7.215,3.486 -11.459,3.486c-4.584,-0 -8.573,-1.268 -11.968,-3.803c-3.396,-2.535 -6.027,-6.021 -7.895,-10.457c-1.697,1.056 -2.801,2.482 -3.31,4.278c-0.509,1.796 -0.764,5.017 -0.764,9.665l0,105.837l-38.706,-0l-0,-157.171Z" style="fill:#f05537;fill-rule:nonzero;"/><path d="M1010.21,92.176c3.565,10.14 5.347,22.287 5.347,36.44l0,89.994l-38.706,-0l0,-19.33c-10.525,16.055 -27.332,24.083 -50.42,24.083c-12.393,-0 -22.791,-2.324 -31.194,-6.972c-8.404,-4.647 -14.303,-11.618 -17.698,-20.913c-2.207,-6.549 -3.311,-13.204 -3.311,-19.964c0,-7.816 1.104,-14.787 3.311,-20.914c4.583,-12.463 13.029,-21.019 25.337,-25.667c12.308,-4.647 27.969,-6.971 46.982,-6.971l26.738,0l0,-2.218c0,-3.591 -0.169,-6.496 -0.509,-8.714c-0.339,-2.218 -0.934,-4.384 -1.782,-6.496c-3.565,-10.14 -12.563,-15.21 -26.993,-15.21c-14.26,-0 -23.173,4.647 -26.738,13.942c-1.019,2.747 -1.528,5.493 -1.528,8.239l-39.215,0c0.509,-7.605 1.782,-14.471 3.819,-20.597c4.244,-12.041 11.841,-20.808 22.791,-26.301c10.95,-5.492 24.404,-8.238 40.362,-8.238c16.806,-0 30.472,2.851 40.998,8.555c10.525,5.704 17.995,14.788 22.409,27.252Zm-70.537,96.964c8.488,0 15.788,-1.743 21.899,-5.228c6.112,-3.486 10.356,-8.609 12.733,-15.369c1.697,-4.225 2.546,-9.612 2.546,-16.161l0,-2.218l-25.719,0c-9.847,0 -17.741,0.792 -23.682,2.377c-5.942,1.584 -9.762,4.806 -11.46,9.664c-0.848,2.535 -1.273,4.965 -1.273,7.289c0,3.168 0.34,5.703 1.019,7.605c1.697,4.225 4.668,7.288 8.912,9.189c4.245,1.901 9.253,2.852 15.025,2.852Z" style="fill:#f05537;fill-rule:nonzero;"/><g><path d="M201.173,33.065l0,13.072l-168.161,-0l0,-9.284l-3.511,0l-0,9.284l-28.872,-0l-0,-13.822c5.201,-1.676 8.778,-5.153 8.778,-9.166c0,-4.014 -3.577,-7.491 -8.778,-9.166l-0,-13.822l28.872,-0l-0,9.283l3.511,0l0,-9.283l168.161,-0l0,13.072c-6.837,1.126 -11.9,5.141 -11.9,9.916c0,4.774 5.063,8.79 11.9,9.916Zm-168.161,-15.663l-3.511,-0l-0,11.494l3.511,-0l0,-11.494Z" style="fill:#f05537;"/><path d="M87.797,223.996l-17.274,0l0,-187.691l12.268,0l0,-3.919l-12.268,0l0,-32.225l18.266,-0c2.214,5.805 6.808,9.798 12.112,9.798c5.304,0 9.898,-3.993 12.112,-9.798l18.266,-0l-0,32.225l-12.268,0l-0,3.919l12.268,0l-0,187.691l-17.274,0c-1.488,-7.631 -6.794,-13.282 -13.104,-13.282c-6.31,0 -11.616,5.651 -13.104,13.282Zm20.698,-187.691l0,-3.919l-15.188,0l-0,3.919l15.188,0Z" style="fill:#f05537;"/></g></g></svg>