<?xml version="1.0" encoding="UTF-8" standalone="no"?><!DOCTYPE svg PUBLIC "-//W3C//DTD SVG 1.1//EN" "http://www.w3.org/Graphics/SVG/1.1/DTD/svg11.dtd"><svg width="100%" height="100%" viewBox="0 0 1086 271" version="1.1" xmlns="http://www.w3.org/2000/svg" xmlns:xlink="http://www.w3.org/1999/xlink" xml:space="preserve" xmlns:serif="http://www.serif.com/" style="fill-rule:evenodd;clip-rule:evenodd;stroke-linejoin:round;stroke-miterlimit:2;"><g id="LogoFullTextTicketLarge"><path d="M81.459,0.565l0,33.67l-12.258,0l-0,-33.67l-23.458,0c-25.11,0 -45.496,21.084 -45.496,47.052l0,175.803c0,25.969 20.386,47.052 45.496,47.052l23.458,-0l-0,-37.896l12.258,-0l0,37.896l958.988,-0c25.11,-0 45.496,-21.083 45.496,-47.052l-0,-175.803c-0,-25.968 -20.386,-47.052 -45.496,-47.052l-958.988,0Zm0,149.744l-12.258,0l-0,52.687l12.258,-0l0,-52.687Zm0,-84.517l-12.258,-0l-0,52.686l12.258,0l0,-52.686Z" style="fill:#f05537;"/><g><path d="M341.392,194.817c3.009,-3.182 4.889,-7.206 5.641,-12.073l34.749,-0c-1.504,12.354 -5.942,22.837 -13.313,31.447c-6.167,6.926 -13.801,12.027 -22.902,15.303c-9.101,3.276 -19.142,4.914 -30.124,4.914c-16.095,-0 -29.86,-3.603 -41.292,-10.81c-11.433,-7.207 -19.556,-17.549 -24.369,-31.027c-3.31,-8.985 -4.965,-19.748 -4.965,-32.29c0,-12.167 1.73,-23.118 5.19,-32.852c4.814,-13.477 12.711,-23.726 23.693,-30.746c10.981,-7.019 24.219,-10.529 39.713,-10.529c15.644,-0 28.882,3.65 39.713,10.951c10.83,7.3 18.653,17.783 23.466,31.447c2.106,6.178 3.611,12.636 4.513,19.374c0.903,6.739 1.354,14.508 1.354,23.306l-103.118,-0c0.451,4.866 1.354,9.172 2.707,12.916c2.257,6.551 6.318,11.465 12.185,14.741c5.867,3.276 13.012,4.913 21.436,4.913c5.415,0 10.38,-0.748 14.892,-2.246c4.513,-1.497 8.124,-3.744 10.831,-6.739Zm-27.754,-78.619c-7.972,-0 -14.629,1.685 -19.969,5.054c-5.34,3.369 -9.214,8.423 -11.621,15.162c-1.053,2.434 -1.805,5.522 -2.256,9.266l68.144,0c-0.451,-2.995 -1.279,-6.271 -2.482,-9.827c-2.407,-6.552 -6.356,-11.466 -11.846,-14.741c-5.491,-3.276 -12.147,-4.914 -19.97,-4.914Z" style="fill:#fff;fill-rule:nonzero;"/><path d="M450.152,234.689c-13.539,-0 -24.858,-2.434 -33.959,-7.301c-9.101,-4.867 -15.457,-12.261 -19.067,-22.182c-2.407,-6.551 -3.61,-13.758 -3.61,-21.62l34.072,0c-0,3.744 0.601,7.3 1.805,10.67c3.008,8.236 10.229,12.354 21.661,12.354c5.265,0 9.628,-0.702 13.088,-2.106c3.459,-1.404 5.716,-3.603 6.769,-6.598c0.602,-1.498 0.902,-3.369 0.902,-5.616c0,-2.059 -0.3,-3.931 -0.902,-5.615c-0.903,-2.434 -2.67,-4.399 -5.303,-5.897c-2.632,-1.497 -6.017,-2.854 -10.154,-4.071c-4.136,-1.217 -10.492,-2.855 -19.066,-4.914c-9.176,-2.246 -16.886,-5.382 -23.129,-9.406c-6.242,-4.025 -10.718,-9.781 -13.425,-17.268c-1.655,-4.68 -2.482,-9.828 -2.482,-15.444c-0,-5.615 0.902,-10.95 2.707,-16.004c3.31,-9.172 9.515,-16.052 18.616,-20.638c9.101,-4.586 19.743,-6.879 31.928,-6.879c12.335,-0 22.94,2.34 31.816,7.02c8.875,4.679 15.042,11.699 18.502,21.058c1.956,5.803 2.934,11.887 2.934,18.251l-33.17,0c0,-3.556 -0.451,-6.551 -1.354,-8.985c-1.353,-3.744 -3.723,-6.551 -7.107,-8.423c-3.385,-1.872 -7.409,-2.808 -12.072,-2.808c-9.477,-0 -15.193,2.714 -17.149,8.143c-0.602,1.31 -0.903,2.995 -0.903,5.054c0,1.872 0.301,3.463 0.903,4.773c1.354,3.369 4.212,5.943 8.574,7.722c4.363,1.778 10.455,3.603 18.277,5.475l5.867,1.404c10.68,2.808 19.255,6.364 25.723,10.67c6.469,4.305 11.057,10.201 13.764,17.689c1.655,4.118 2.483,9.266 2.483,15.443c-0,6.552 -0.903,12.355 -2.708,17.409c-3.61,9.734 -10.304,16.94 -20.082,21.62c-9.778,4.68 -21.361,7.02 -34.749,7.02Z" style="fill:#fff;fill-rule:nonzero;"/><path d="M575.609,234.689c-13.539,-0 -24.858,-2.434 -33.959,-7.301c-9.101,-4.867 -15.457,-12.261 -19.067,-22.182c-2.407,-6.551 -3.61,-13.758 -3.61,-21.62l34.072,0c-0,3.744 0.601,7.3 1.805,10.67c3.008,8.236 10.229,12.354 21.661,12.354c5.265,0 9.628,-0.702 13.088,-2.106c3.459,-1.404 5.716,-3.603 6.769,-6.598c0.602,-1.498 0.902,-3.369 0.902,-5.616c0,-2.059 -0.3,-3.931 -0.902,-5.615c-0.903,-2.434 -2.67,-4.399 -5.303,-5.897c-2.632,-1.497 -6.017,-2.854 -10.154,-4.071c-4.136,-1.217 -10.492,-2.855 -19.066,-4.914c-9.176,-2.246 -16.886,-5.382 -23.129,-9.406c-6.242,-4.025 -10.718,-9.781 -13.425,-17.268c-1.655,-4.68 -2.482,-9.828 -2.482,-15.444c-0,-5.615 0.902,-10.95 2.707,-16.004c3.31,-9.172 9.515,-16.052 18.616,-20.638c9.101,-4.586 19.743,-6.879 31.928,-6.879c12.335,-0 22.94,2.34 31.816,7.02c8.875,4.679 15.042,11.699 18.502,21.058c1.956,5.803 2.934,11.887 2.934,18.251l-33.17,0c0,-3.556 -0.451,-6.551 -1.354,-8.985c-1.353,-3.744 -3.723,-6.551 -7.107,-8.423c-3.385,-1.872 -7.409,-2.808 -12.072,-2.808c-9.477,-0 -15.193,2.714 -17.149,8.143c-0.602,1.31 -0.903,2.995 -0.903,5.054c0,1.872 0.301,3.463 0.903,4.773c1.354,3.369 4.212,5.943 8.574,7.722c4.363,1.778 10.455,3.603 18.277,5.475l5.867,1.404c10.681,2.808 19.255,6.364 25.723,10.67c6.469,4.305 11.057,10.201 13.764,17.689c1.655,4.118 2.483,9.266 2.483,15.443c-0,6.552 -0.903,12.355 -2.708,17.409c-3.61,9.734 -10.304,16.94 -20.082,21.62c-9.778,4.68 -21.361,7.02 -34.749,7.02Z" style="fill:#fff;fill-rule:nonzero;"/><path d="M740.779,194.817c3.008,-3.182 4.889,-7.206 5.641,-12.073l34.749,-0c-1.504,12.354 -5.942,22.837 -13.313,31.447c-6.168,6.926 -13.802,12.027 -22.903,15.303c-9.101,3.276 -19.142,4.914 -30.123,4.914c-16.096,-0 -29.86,-3.603 -41.292,-10.81c-11.433,-7.207 -19.556,-17.549 -24.37,-31.027c-3.309,-8.985 -4.964,-19.748 -4.964,-32.29c0,-12.167 1.73,-23.118 5.19,-32.852c4.813,-13.477 12.711,-23.726 23.692,-30.746c10.981,-7.019 24.219,-10.529 39.713,-10.529c15.645,-0 28.882,3.65 39.713,10.951c10.831,7.3 18.653,17.783 23.467,31.447c2.106,6.178 3.61,12.636 4.513,19.374c0.902,6.739 1.354,14.508 1.354,23.306l-103.119,-0c0.452,4.866 1.354,9.172 2.708,12.916c2.256,6.551 6.318,11.465 12.185,14.741c5.866,3.276 13.012,4.913 21.436,4.913c5.415,0 10.379,-0.748 14.892,-2.246c4.513,-1.497 8.123,-3.744 10.831,-6.739Zm-27.754,-78.619c-7.973,-0 -14.629,1.685 -19.969,5.054c-5.341,3.369 -9.214,8.423 -11.621,15.162c-1.053,2.434 -1.805,5.522 -2.256,9.266l68.143,0c-0.451,-2.995 -1.278,-6.271 -2.482,-9.827c-2.406,-6.552 -6.355,-11.466 -11.846,-14.741c-5.49,-3.276 -12.147,-4.914 -19.969,-4.914Z" style="fill:#fff;fill-rule:nonzero;"/><path d="M799.446,90.647l34.072,-0l-0,11.231c2.858,-5.241 5.904,-9.079 9.138,-11.512c3.234,-2.434 6.958,-3.65 11.17,-3.65c6.318,-0 11.357,2.293 15.118,6.879c3.76,4.586 5.641,10.623 5.641,18.11c-0,4.867 -0.828,9.173 -2.482,12.916c-1.655,3.744 -3.987,6.646 -6.995,8.705c-3.009,2.059 -6.394,3.088 -10.154,3.088c-4.062,0 -7.597,-1.123 -10.605,-3.369c-3.009,-2.246 -5.341,-5.335 -6.995,-9.266c-1.505,0.936 -2.482,2.199 -2.934,3.791c-0.451,1.591 -0.677,4.445 -0.677,8.564l0,93.781l-34.297,0l-0,-139.268Z" style="fill:#fff;fill-rule:nonzero;"/><path d="M998.237,117.883c3.159,8.985 4.738,19.748 4.738,32.29l0,79.742l-34.298,0l0,-17.127c-9.326,14.226 -24.218,21.339 -44.677,21.339c-10.981,0 -20.195,-2.059 -27.641,-6.177c-7.446,-4.118 -12.673,-10.296 -15.682,-18.532c-1.956,-5.803 -2.933,-11.699 -2.933,-17.689c-0,-6.926 0.977,-13.104 2.933,-18.532c4.062,-11.044 11.545,-18.625 22.451,-22.744c10.906,-4.118 24.783,-6.177 41.631,-6.177l23.693,0l-0,-1.965c-0,-3.182 -0.151,-5.756 -0.452,-7.722c-0.3,-1.965 -0.827,-3.884 -1.579,-5.756c-3.159,-8.985 -11.132,-13.477 -23.918,-13.477c-12.636,-0 -20.533,4.118 -23.692,12.354c-0.903,2.433 -1.354,4.867 -1.354,7.3l-34.749,0c0.451,-6.738 1.579,-12.822 3.384,-18.251c3.761,-10.669 10.493,-18.438 20.195,-23.305c9.703,-4.867 21.624,-7.3 35.765,-7.3c14.892,-0 27.001,2.527 36.328,7.581c9.327,5.054 15.945,13.103 19.857,24.148Zm-62.503,85.919c7.521,0 13.989,-1.544 19.405,-4.632c5.415,-3.089 9.176,-7.628 11.282,-13.619c1.504,-3.743 2.256,-8.517 2.256,-14.319l0,-1.966l-22.789,0c-8.725,0 -15.72,0.702 -20.985,2.106c-5.265,1.404 -8.65,4.258 -10.154,8.564c-0.752,2.246 -1.128,4.399 -1.128,6.458c-0,2.808 0.301,5.054 0.902,6.739c1.505,3.743 4.137,6.458 7.898,8.142c3.76,1.685 8.198,2.527 13.313,2.527Z" style="fill:#fff;fill-rule:nonzero;"/><g><path d="M281.348,65.505l-0,11.583l-149.007,-0l-0,-8.227l-3.112,0l0,8.227l-25.583,-0l-0,-12.248c4.609,-1.485 7.778,-4.566 7.778,-8.122c0,-3.556 -3.169,-6.637 -7.778,-8.122l-0,-12.248l25.583,0l0,8.227l3.112,-0l-0,-8.227l149.007,0l-0,11.583c-6.059,0.998 -10.545,4.556 -10.545,8.787c0,4.231 4.486,7.789 10.545,8.787Zm-149.007,-13.879l-3.112,-0l0,10.184l3.112,0l-0,-10.184Z" style="fill:#fff;"/><path d="M180.886,234.689l-15.307,-0l0,-166.313l10.871,0l-0,-3.473l-10.871,0l0,-28.555l16.185,0c1.962,5.145 6.033,8.683 10.733,8.683c4.699,-0 8.771,-3.538 10.732,-8.683l16.185,0l0,28.555l-10.87,0l-0,3.473l10.87,0l0,166.313l-15.306,-0c-1.319,-6.762 -6.02,-11.77 -11.611,-11.77c-5.591,0 -10.293,5.008 -11.611,11.77Zm18.34,-166.313l0,-3.473l-13.459,0l0,3.473l13.459,0Z" style="fill:#fff;"/></g></g></g></svg>